<svg xmlns="http://www.w3.org/2000/svg" viewBox="0 0 64 64">
  <!-- Font Awesome Free 7.3.0, scale-balanced, CC BY 4.0 -->
  <rect width="64" height="64" rx="14" fill="#101a2f"/>
  <path fill="#d8bc7a" d="M36.96 13.12h8.32a2.08 2.08 0 1 1 0 4.16h-7.38a5.21 5.21 0 0 1-3.02 3.72v19.16h10.4a2.08 2.08 0 1 1 0 4.16H20.32a2.08 2.08 0 1 1 0-4.16h10.4V21a5.21 5.21 0 0 1-3.02-3.72h-7.38a2.08 2.08 0 1 1 0-4.16h8.32A5.18 5.18 0 0 1 32.8 11a5.18 5.18 0 0 1 4.16 2.12Zm3.61 18.72H50l-4.71-8.07-4.72 8.07Zm4.72 6.24c-4.09 0-7.49-2.21-8.19-5.13-.17-.72.06-1.45.43-2.09l6.19-10.61a1.82 1.82 0 0 1 3.14 0l6.19 10.61c.37.64.6 1.37.43 2.09-.7 2.92-4.1 5.13-8.19 5.13ZM15.28 23.77l-4.71 8.07H20l-4.72-8.07ZM7.09 32.95c-.17-.72.06-1.45.43-2.09l6.19-10.61a1.82 1.82 0 0 1 3.14 0l6.19 10.61c.37.64.6 1.37.43 2.09-.7 2.92-4.1 5.13-8.19 5.13s-7.49-2.21-8.19-5.13Z"/>
</svg>
